<?xml version="1.0" standalone="no"?>
<!DOCTYPE svg PUBLIC "-//W3C//DTD SVG 20010904//EN"
 "http://www.w3.org/TR/2001/REC-SVG-20010904/DTD/svg10.dtd">
<svg version="1.0" xmlns="http://www.w3.org/2000/svg"
 width="512.000000pt" height="512.000000pt" viewBox="0 0 512.000000 512.000000"
 preserveAspectRatio="xMidYMid meet">
<metadata>
Created by potrace 1.11, written by Peter Selinger 2001-2013
</metadata>
<g transform="translate(0.000000,512.000000) scale(0.100000,-0.100000)"
fill="#000000" stroke="none">
<path d="M2593 4503 c-22 -16 -134 -125 -249 -243 -447 -461 -527 -541 -557
-556 -30 -16 -112 -15 -177 1 -23 6 -25 3 -27 -28 -2 -38 -50 -150 -79 -184
-24 -28 -292 -142 -364 -155 -159 -28 -205 -39 -224 -57 -14 -12 -44 -21 -88
-26 -89 -9 -104 -26 -56 -65 42 -34 74 -99 124 -247 46 -139 114 -390 114
-424 0 -14 20 -57 45 -95 25 -38 77 -132 116 -208 l71 -140 -53 -13 c-131 -34
-318 -187 -353 -290 -30 -87 -23 -128 53 -306 147 -344 148 -348 135 -387 -18
-48 -17 -85 2 -100 12 -10 107 -15 410 -18 383 -5 396 -5 427 -26 18 -12 38
-36 46 -53 8 -18 19 -34 26 -37 6 -2 76 9 156 25 79 16 169 29 199 29 30 0 84
7 120 15 131 29 228 44 378 60 159 16 320 47 477 91 l90 26 27 -31 c37 -42 61
-129 62 -233 1 -100 9 -94 38 26 14 57 21 134 25 257 5 153 3 183 -12 223 -24
62 -16 129 19 164 87 88 320 -68 564 -377 42 -54 86 -110 98 -126 l20 -29 57
43 c31 24 57 49 57 55 0 24 -488 490 -559 533 -72 44 -91 59 -91 72 0 21 83 8
154 -23 32 -14 71 -26 86 -26 31 0 87 -35 143 -88 20 -20 37 -31 37 -26 0 6
-25 51 -56 100 -31 49 -63 102 -71 118 l-15 28 44 -7 c24 -4 94 -25 156 -47
63 -22 116 -38 118 -35 3 2 -33 24 -78 47 -46 23 -105 60 -133 80 -66 50 -172
114 -211 127 -24 8 -35 8 -44 0 -8 -9 -8 -4 1 16 11 24 14 26 19 12 4 -12 18
14 39 76 19 52 51 131 73 176 37 76 40 88 39 165 -1 125 -58 309 -99 323 -18
5 -74 80 -130 174 l-20 34 54 84 c30 46 52 89 48 95 -4 6 -3 8 3 5 5 -3 21 17
34 45 20 43 24 67 24 142 0 110 -7 127 -153 369 -56 92 -102 176 -102 185 -1
35 -41 104 -92 158 -67 71 -155 129 -298 197 -93 44 -143 78 -263 173 -81 66
-165 134 -188 152 -55 44 -126 45 -186 5z m-25 -669 c12 -2 22 -9 22 -15 0
-16 -140 -2 -205 20 -23 8 -7 9 65 5 52 -3 105 -7 118 -10z m-676 -76 c-6 -6
-15 -8 -19 -4 -4 4 -1 11 7 16 19 12 27 3 12 -12z m528 -218 c0 -6 12 -15 27
-21 16 -6 40 -25 55 -44 32 -39 159 -135 203 -154 17 -7 61 -31 100 -54 63
-38 67 -42 43 -45 -21 -2 -25 -7 -21 -20 6 -15 5 -15 -10 -3 -9 7 -14 18 -11
23 4 6 -1 8 -13 4 -11 -4 -33 0 -49 9 -16 8 -35 15 -41 15 -7 0 -13 4 -13 9 0
15 -53 62 -85 75 -33 14 -135 110 -178 168 -29 40 -32 48 -17 48 6 0 10 -5 10
-10z m-1480 -265 c-7 -8 -17 -15 -22 -15 -6 0 -5 7 2 15 7 8 17 15 22 15 6 0
5 -7 -2 -15z m2850 -60 c0 -16 -6 -25 -15 -25 -15 0 -21 31 -8 43 13 14 23 6
23 -18z m-2279 -14 c-6 -10 -7 -22 -3 -26 4 -4 -3 -4 -15 -1 -16 5 -23 3 -23
-6 0 -15 -41 -54 -52 -50 -5 1 -8 -11 -8 -28 0 -26 -4 -30 -26 -30 -22 0 -24
-2 -14 -15 14 -17 4 -55 -16 -55 -8 0 -14 10 -14 25 0 13 -8 28 -17 34 -36 19
123 170 180 171 14 0 16 -4 8 -19z m1059 -30 c0 -16 3 -44 6 -62 5 -32 5 -33
-10 -15 -18 22 -22 106 -6 106 6 0 10 -13 10 -29z m1219 -43 c-1 -7 -5 -24 -9
-38 -7 -22 -8 -21 -9 13 -1 20 4 37 9 37 6 0 10 -6 9 -12z m-2479 -107 c0 -11
-4 -23 -10 -26 -6 -4 -10 5 -10 19 0 14 5 26 10 26 6 0 10 -9 10 -19z m1277
-3 c-3 -8 -6 -5 -6 6 -1 11 2 17 5 13 3 -3 4 -12 1 -19z m28 -64 c3 -21 20
-65 36 -99 16 -34 29 -68 29 -76 0 -8 5 -20 12 -27 8 -8 8 -15 -2 -27 -10 -12
-10 -19 -2 -27 18 -18 14 -30 -8 -23 -19 6 -70 -20 -70 -36 0 -5 -16 -29 -35
-55 -19 -25 -35 -52 -35 -59 0 -8 -6 -18 -12 -22 -7 -5 -28 -25 -46 -44 -30
-33 -32 -39 -21 -58 12 -18 11 -22 -5 -34 -11 -8 -16 -19 -12 -25 9 -14 -3
-42 -19 -42 -7 0 -15 -10 -19 -23 -3 -13 -16 -35 -28 -49 -49 -54 -57 -68 -52
-83 8 -19 -14 -76 -35 -91 -8 -6 -11 -16 -7 -22 9 -15 43 -16 51 -2 11 17 44
11 55 -10 6 -11 18 -20 26 -20 10 0 14 -8 12 -22 -2 -18 -10 -24 -40 -26 -20
-2 -42 -10 -48 -18 -15 -17 -53 -18 -81 -3 -16 8 -25 7 -40 -7 -17 -15 -23
-16 -40 -6 -14 9 -25 9 -39 2 -22 -12 -340 -14 -340 -2 0 5 19 9 43 11 66 3
187 19 242 31 28 6 76 13 107 17 55 5 85 27 53 39 -7 3 -17 19 -20 36 -6 24
-2 36 22 61 16 18 47 57 68 87 22 30 42 57 46 60 16 13 37 70 42 119 5 45 13
60 50 100 63 67 81 98 87 150 5 45 19 61 88 100 7 4 16 26 19 49 5 40 4 42
-21 42 -32 0 -46 30 -46 100 0 84 21 105 35 34z m1118 21 c1 -5 -6 -11 -15
-13 -11 -2 -18 3 -18 13 0 17 30 18 33 0z m-1775 -205 c-2 -7 -10 1 -17 16
-12 27 -11 28 4 12 10 -9 16 -21 13 -28z m1898 -116 c17 -17 22 -32 18 -48 -4
-16 0 -25 10 -29 9 -4 16 -18 16 -32 0 -14 7 -28 15 -31 10 -4 13 -14 9 -30
-4 -13 -1 -31 5 -38 25 -29 11 -206 -15 -206 -12 0 -19 -19 -15 -42 0 -4 -5
-5 -13 -2 -9 3 -16 -5 -20 -22 -6 -22 -9 -25 -16 -14 -6 9 -4 20 6 31 7 8 14
20 14 25 0 5 9 15 20 21 22 15 37 77 22 96 -6 6 -10 33 -10 58 0 26 -7 61 -16
77 -9 17 -16 38 -16 47 0 9 -9 19 -20 22 -11 3 -20 13 -20 22 0 9 -5 22 -10
27 -8 8 -6 15 5 24 8 7 15 17 15 22 0 6 -7 5 -15 -2 -12 -10 -15 -10 -15 3 0
19 10 47 17 47 3 0 16 -12 29 -26z m-1860 -46 c-3 -18 -9 -50 -12 -70 -4 -21
-11 -38 -15 -38 -14 0 -11 114 3 128 21 21 30 13 24 -20z m1358 -75 c0 -23 -6
-49 -13 -57 -8 -9 -56 -36 -109 -61 -64 -31 -114 -63 -151 -98 -31 -29 -70
-62 -87 -74 -70 -50 -263 -103 -367 -103 -58 1 -60 2 -37 14 14 8 49 19 78 25
29 6 83 27 120 45 37 19 81 40 97 46 28 10 87 48 223 139 29 20 61 41 71 46
35 20 51 37 51 55 0 27 69 71 105 67 17 -2 20 -9 19 -44z m-1940 -299 c9 -3
16 -12 16 -20 0 -16 -42 -4 -48 14 -4 13 8 15 32 6z m123 -48 c28 -8 62 -21
74 -30 13 -9 35 -16 49 -16 14 0 34 -6 45 -14 11 -7 48 -16 82 -19 35 -4 71
-11 80 -16 10 -5 39 -17 65 -26 46 -16 76 -40 65 -52 -4 -3 -13 0 -22 7 -8 7
-36 12 -62 12 -25 -1 -67 4 -92 9 -25 6 -60 13 -76 14 -17 2 -60 17 -98 34
-37 17 -73 31 -80 31 -6 0 -21 7 -31 15 -11 8 -27 15 -36 15 -14 0 -50 32 -50
45 0 9 33 5 87 -9z m2323 -73 c0 -5 -5 -15 -10 -23 -8 -12 -10 -11 -10 8 0 12
5 22 10 22 6 0 10 -3 10 -7z m-2073 -189 c-3 -3 -12 -4 -19 -1 -8 3 -5 6 6 6
11 1 17 -2 13 -5z m2183 -104 c84 -57 85 -64 12 -57 -54 6 -61 4 -67 -13 -7
-21 -66 -39 -151 -47 -38 -4 -53 -1 -64 12 -11 13 -10 20 8 45 12 16 22 35 22
41 0 7 11 27 25 45 17 22 31 31 44 27 10 -3 21 0 25 5 9 15 80 -13 146 -58z
m-460 8 c0 -48 -1 -50 -18 -35 -11 10 -26 14 -40 10 -27 -7 -27 -3 -1 41 12
21 29 36 40 36 16 0 19 -8 19 -52z m-166 -133 c4 -10 -1 -15 -16 -15 -17 0
-18 2 -8 15 7 8 14 15 15 15 2 0 5 -7 9 -15z m613 -27 c20 -22 43 -61 43 -72
0 -3 -16 6 -36 19 -20 14 -45 25 -55 25 -29 0 -100 31 -93 41 3 5 31 9 63 9
47 0 61 -4 78 -22z m-419 0 c-7 -19 -38 -22 -38 -4 0 10 9 16 21 16 12 0 19
-5 17 -12z m149 -52 c18 -9 65 -44 105 -77 68 -57 498 -457 498 -464 0 -2 -22
-19 -48 -37 l-48 -35 -44 61 c-25 34 -64 85 -88 114 -23 29 -40 57 -37 62 3 5
0 12 -6 16 -8 5 -9 3 -4 -7 4 -8 -39 32 -96 87 -103 100 -209 179 -259 191
-29 7 -95 47 -106 64 -4 7 9 25 32 45 37 31 40 32 54 14 8 -10 30 -25 47 -34z
m-413 35 c3 -5 -5 -11 -19 -13 -26 -5 -35 6 -12 15 19 8 25 8 31 -2z m-1605
-70 c6 -10 26 -22 45 -25 19 -4 39 -13 46 -21 7 -8 30 -20 51 -25 22 -6 39
-15 39 -20 0 -6 8 -10 18 -10 10 0 27 -7 38 -15 18 -14 18 -14 1 -15 -11 0
-31 6 -45 14 -15 8 -58 27 -97 43 -74 30 -145 71 -145 85 0 16 40 8 49 -11z
m-519 -22 c22 -12 40 -25 40 -30 0 -5 8 -9 18 -9 23 0 152 -46 262 -94 49 -21
135 -47 205 -61 104 -21 141 -23 280 -20 88 2 183 6 210 10 107 12 215 13 215
0 0 -16 -38 -55 -54 -55 -18 0 -28 -27 -13 -33 7 -2 -6 -12 -28 -22 -53 -23
-258 -38 -405 -30 -228 13 -339 39 -475 109 -37 20 -74 36 -81 36 -7 0 -26 14
-42 30 -19 18 -41 30 -57 30 -47 0 -150 118 -130 150 8 13 8 13 55 -11z m2340
-23 c0 -9 -30 -14 -35 -6 -4 6 3 10 14 10 12 0 21 -2 21 -4z m-153 -57 c19 -7
33 -7 48 1 11 6 28 12 38 14 9 1 20 5 23 9 12 12 24 8 24 -9 0 -9 -9 -18 -20
-21 -23 -6 -25 -19 -6 -38 15 -16 6 -97 -20 -177 -16 -48 -44 -66 -44 -28 0
13 -7 20 -20 20 -11 0 -20 5 -20 10 0 6 -9 10 -20 10 -20 0 -27 14 -11 24 14
9 -9 86 -25 86 -16 0 -20 55 -4 65 6 3 10 12 10 18 0 8 -3 8 -9 -1 -5 -9 -17
-11 -34 -6 -28 6 -37 24 -13 24 8 0 24 11 37 24 23 24 24 24 31 5 4 -10 20
-24 35 -30z m-1217 -55 c134 -20 167 -35 65 -29 -132 8 -183 16 -196 31 -6 8
-20 14 -30 14 -10 0 -20 4 -23 8 -3 5 16 5 42 0 26 -5 90 -16 142 -24z m1347
-284 c6 -24 7 -23 14 10 5 20 6 -17 4 -89 -2 -68 -8 -128 -13 -133 -5 -5 -14
10 -21 34 -16 53 -58 128 -73 128 -12 0 19 51 39 63 7 4 13 17 13 27 0 10 6
32 13 47 12 27 12 27 15 -17 1 -25 5 -56 9 -70z"/>
<path d="M3955 1320 c3 -5 8 -10 11 -10 2 0 4 5 4 10 0 6 -5 10 -11 10 -5 0
-7 -4 -4 -10z"/>
<path d="M3990 1280 c0 -5 5 -10 10 -10 6 0 10 5 10 10 0 6 -4 10 -10 10 -5 0
-10 -4 -10 -10z"/>
<path d="M4120 1136 c0 -2 8 -10 18 -17 15 -13 16 -12 3 4 -13 16 -21 21 -21
13z"/>
<path d="M4181 1096 c-11 -13 -10 -17 3 -22 22 -8 30 1 19 21 -9 15 -11 15
-22 1z"/>
</g>
</svg>
